<svg width="354" height="217" viewBox="0 0 354 217" fill="none" xmlns="http://www.w3.org/2000/svg"> 
<defs>
<linearGradient id="myGradient" gradientTransform="rotate(0)"> 
      <stop offset="14.96%" stop-color="#B4A175" class="offset1" id="offset1"/>
      <stop offset="83.93%" stop-color="#7E5B94" id="offset2"/>
      <stop offset="0%" stop-color="rgba(102, 80, 162, 0.8)" id="offset3"/>
    </linearGradient></defs>
<path d="M354 108.5C354 96.9663 325.554 86.738 281.725 80.3904C275.539 57.3252 261.924 36.9461 242.991 22.4118C224.057 7.87762 200.862 0 177 0C153.138 0 129.943 7.87762 111.009 22.4118C92.0756 36.9461 78.4608 57.3252 72.2754 80.3904C28.4459 86.693 0 96.9663 0 108.5C0 120.034 28.4459 130.262 72.2754 136.61C78.4608 159.675 92.0756 180.054 111.009 194.588C129.943 209.122 153.138 217 177 217C200.862 217 224.057 209.122 242.991 194.588C261.924 180.054 275.539 159.675 281.725 136.61C325.554 130.262 354 120.034 354 108.5ZM32.962 108.05C32.962 100.712 47.113 94.031 70.3412 88.998C68.0667 101.581 68.015 114.465 70.1883 127.066C47.0501 122.051 32.962 115.379 32.962 108.05ZM283.83 126.958C285.97 114.439 285.915 101.642 283.668 89.142C306.572 94.1571 320.507 100.793 320.507 108.05C320.507 115.307 306.644 121.943 283.83 126.958Z" fill="url('#myGradient')" />
</svg>
