<svg width="363" height="239" viewBox="0 0 363 239" fill="none" xmlns="http://www.w3.org/2000/svg">
<defs>
<linearGradient id="myGradient" gradientTransform="rotate(0)"> 
      <stop offset="14.96%" stop-color="#B4A175" id="offset1"/>
      <stop offset="83.93%" stop-color="#7E5B94" id="offset2"/>
      <stop offset="0%" stop-color="rgba(102, 80, 162, 0.8)" id="offset3"/>
    </linearGradient></defs>
<path d="M339.18 103.74C330.32 102.45 317.77 101.29 301.87 100.3L299.22 100.14C294.627 72.1764 280.247 46.7545 258.646 28.4117C237.045 10.069 209.628 -0.000976562 181.29 -0.000976562C152.952 -0.000976562 125.535 10.069 103.934 28.4117C82.333 46.7545 67.9528 72.1764 63.36 100.14L60.71 100.3C44.81 101.3 32.26 102.45 23.4 103.74C14.08 105.11 0 107.17 0 119.5C0 131.83 14.08 133.89 23.4 135.26C32.26 136.55 44.81 137.71 60.71 138.7L63.36 138.86C67.9528 166.824 82.333 192.246 103.934 210.589C125.535 228.931 152.952 239.001 181.29 239.001C209.628 239.001 237.045 228.931 258.646 210.589C280.247 192.246 294.627 166.824 299.22 138.86L301.87 138.7C317.77 137.7 330.32 136.55 339.18 135.26C348.5 133.89 362.58 131.83 362.58 119.5C362.58 107.17 348.5 105.11 339.18 103.74Z" fill="url('#myGradient')"/>
</svg>
