<svg id="planet4" width="232" height="223" viewBox="0 0 232 223" fill="none" xmlns="http://www.w3.org/2000/svg">
<defs>
<linearGradient id="myGradient" gradientTransform="rotate(0)"> 
      <stop offset="14.96%" stop-color="#B4A175" id="offset1"/>
      <stop offset="83.93%" stop-color="#7E5B94" id="offset2"/>
      <stop offset="0%" stop-color="rgba(102, 80, 162, 0.8)" id="offset3"/>
    </linearGradient></defs>
<path d="M166.693 222.552L120.786 214.056C117.627 213.473 114.387 213.473 111.228 214.056L65.3141 222.595C61.8124 223.242 58.2154 223.171 54.7422 222.385C51.2689 221.599 47.9921 220.116 45.1112 218.024C42.2303 215.933 39.8055 213.277 37.9846 210.22C36.1637 207.162 34.9847 203.766 34.5194 200.239L28.4232 153.989C28.0021 150.808 27.0003 147.73 25.4676 144.91L3.19059 103.905C1.49147 100.778 0.44728 97.3382 0.12164 93.7952C-0.203999 90.2521 0.195712 86.6799 1.29645 83.2962C2.39719 79.9125 4.1759 76.7881 6.52422 74.1133C8.87255 71.4385 11.7413 69.2693 14.9558 67.7379L57.0884 47.6159C59.9983 46.2353 62.6295 44.3324 64.8512 42.0019L96.9919 8.16876C99.4432 5.58752 102.395 3.53192 105.667 2.1272C108.939 0.72248 112.463 -0.00195313 116.025 -0.00195312C119.586 -0.00195313 123.111 0.72248 126.383 2.1272C129.655 3.53192 132.607 5.58752 135.058 8.16876L167.206 42.0019C169.406 44.3282 172.016 46.2311 174.904 47.6159L217.051 67.7023C220.264 69.2351 223.132 71.4052 225.479 74.0804C227.826 76.7556 229.603 79.88 230.703 83.2634C231.803 86.6468 232.203 90.2184 231.877 93.7609C231.551 97.3034 230.508 100.743 228.809 103.869L206.532 144.875C205.002 147.695 204.003 150.773 203.584 153.954L197.481 200.203C197.015 203.73 195.837 207.125 194.016 210.181C192.195 213.238 189.771 215.893 186.891 217.984C184.011 220.074 180.735 221.558 177.262 222.343C173.79 223.129 170.194 223.2 166.693 222.552V222.552Z" fill="url('#myGradient')"/>
</svg>
