<svg width="375" height="239" viewBox="0 0 375 239" fill="none" xmlns="http://www.w3.org/2000/svg">
<defs>
<linearGradient id="myGradient" gradientTransform="rotate(0)"> 
      <stop offset="0%" stop-color="rgba(255, 255, 255, 0)" id="offset1"/>
      <stop offset="0%" stop-color="rgba(246, 171, 192, 0.8)" id="offset2"/>
      <stop offset="0%" stop-color="rgba(102, 80, 162, 0.8)" id="offset3"/>
    </linearGradient></defs>
<path fill-rule="evenodd" clip-rule="evenodd" d="M234.195 21.2021C254.555 35.0181 270.297 54.6277 279.386 77.4921C338.319 87.0566 377.388 103.817 377.388 122.883C377.388 152.653 282.375 176.723 165.194 176.723C48.0122 176.723 -47 152.615 -47 122.883C-47 103.817 -7.93102 87.0566 51.0019 77.4921C60.0902 54.6277 75.8331 35.0181 96.1923 21.2021C116.551 7.38613 140.589 0 165.194 0C189.798 0 213.836 7.38613 234.195 21.2021ZM105.212 223.091C86.8663 212.83 71.4596 198.034 60.4648 180.118C95.0497 184.885 129.927 187.214 164.839 187.085C200.01 187.219 235.147 184.861 269.986 180.029C259.006 197.954 243.612 212.763 225.275 223.04C206.938 233.317 186.271 238.718 165.25 238.727C144.23 238.736 123.558 233.352 105.212 223.091Z" fill="url('#myGradient')"/>
</svg>
