<svg width="363" height="210" viewBox="0 0 363 210" fill="none" xmlns="http://www.w3.org/2000/svg">
<defs>
<linearGradient id="myGradient" gradientTransform="rotate(0)"> 
      <stop offset="14.96%" stop-color="#B4A175" id="offset1"/>
      <stop offset="83.93%" stop-color="#7E5B94" id="offset2"/>
      <stop offset="0%" stop-color="rgba(102, 80, 162, 0.8)" id="offset3"/>
    </linearGradient></defs>
<path d="M308.79 80.0051C300.35 78.4251 291.23 77.0051 281.54 75.7851C275.295 53.9502 262.108 34.7433 243.976 21.0697C225.843 7.39619 203.75 0 181.04 0C158.33 0 136.237 7.39619 118.104 21.0697C99.9715 34.7433 86.7852 53.9502 80.54 75.7851C70.85 77.0051 61.73 78.4251 53.29 80.0051C18.92 86.4851 0 95.2051 0 104.565C0 113.925 18.92 122.645 53.29 129.125C61.73 130.705 70.85 132.125 80.54 133.345C86.7852 155.18 99.9715 174.387 118.104 188.06C136.237 201.734 158.33 209.13 181.04 209.13C203.75 209.13 225.843 201.734 243.976 188.06C262.108 174.387 275.295 155.18 281.54 133.345C291.23 132.125 300.35 130.705 308.79 129.125C343.16 122.645 362.08 113.925 362.08 104.565C362.08 95.2051 343.16 86.4851 308.79 80.0051ZM76.79 112.005C60.91 109.925 51.52 107.365 51.52 104.585C51.52 101.805 60.91 99.2451 76.79 97.1651C76.61 99.6151 76.52 102.095 76.52 104.585C76.52 107.075 76.65 109.535 76.83 111.985L76.79 112.005ZM285.25 97.1651C301.13 99.2451 310.52 101.805 310.52 104.585C310.52 107.365 301.13 109.925 285.25 112.005C285.43 109.555 285.52 107.075 285.52 104.585C285.52 102.095 285.47 99.5951 285.29 97.1451L285.25 97.1651ZM77.8 88.2151C70.51 89.1151 64.47 90.1051 59.8 91.2151C54.29 92.4751 42.8 95.0851 42.8 104.615C42.8 114.145 54.27 116.755 59.8 118.015C64.52 119.095 70.56 120.085 77.8 121.015C78.08 122.775 78.4133 124.522 78.8 126.255C72.26 125.415 66.02 124.485 60.14 123.475C24.37 117.315 11.62 109.715 11.62 104.645C11.62 99.575 24.37 91.9751 60.14 85.8151C66.02 84.8151 72.26 83.8751 78.8 83.0351C78.44 84.7151 78.12 86.4351 77.84 88.1951L77.8 88.2151ZM284.24 120.955C291.53 120.055 297.57 119.065 302.24 117.955C307.75 116.695 319.24 114.085 319.24 104.555C319.24 95.0251 307.77 92.4151 302.24 91.1551C297.52 90.0751 291.48 89.0851 284.24 88.1551C283.96 86.3951 283.627 84.6484 283.24 82.9151C289.78 83.7551 296.02 84.6851 301.9 85.6951C337.67 91.8551 350.42 99.4551 350.42 104.525C350.42 109.595 337.67 117.195 301.9 123.355C296.02 124.355 289.78 125.295 283.24 126.135C283.653 124.435 284 122.702 284.28 120.935L284.24 120.955ZM53.56 128.065C20.24 121.785 1.12 113.205 1.12 104.535C1.12 95.8651 20.2 87.3151 53.56 81.0651C61.85 79.5051 70.81 78.0651 80.32 76.9051C80.15 77.5051 79.99 78.1051 79.83 78.7051C37.83 83.9151 7.54001 92.6551 7.54001 104.595C7.54001 116.535 37.88 125.275 79.83 130.485C79.99 131.085 80.15 131.685 80.32 132.285C70.77 131.065 61.81 129.655 53.56 128.065ZM308.56 128.065C300.27 129.625 291.31 131.065 281.8 132.225C281.97 131.625 282.13 131.025 282.29 130.425C324.29 125.215 354.58 116.475 354.58 104.535C354.58 92.5951 324.24 83.8551 282.29 78.6451C282.13 78.0451 281.97 77.4451 281.8 76.8451C291.31 78.0551 300.27 79.4451 308.56 81.0051C341.88 87.2851 361 95.8651 361 104.535C361 113.205 341.92 121.815 308.56 128.065Z" fill="url('#myGradient')"/>
</svg>
