<svg width="216" height="207" viewBox="0 0 216 207" fill="none" xmlns="http://www.w3.org/2000/svg">

<defs>
<linearGradient id="myGradient" gradientTransform="rotate(0)"> 
      <stop offset="0%" stop-color="rgba(255, 255, 255, 0)" id="offset1"/>
      <stop offset="0%" stop-color="rgba(246, 171, 192, 0.8)" id="offset2"/>
      <stop offset="0%" stop-color="rgba(102, 80, 162, 0.8)" id="offset3"/>
    </linearGradient></defs>
<path d="M150.693 206.552L104.786 198.056C101.627 197.473 98.3875 197.473 95.2284 198.056L49.3141 206.595C45.8124 207.242 42.2154 207.171 38.7422 206.385C35.2689 205.599 31.9921 204.116 29.1112 202.024C26.2303 199.933 23.8055 197.277 21.9846 194.22C20.1637 191.162 18.9847 187.766 18.5194 184.239L12.4232 137.989C12.0021 134.808 11.0003 131.73 9.46761 128.91L-12.8094 87.9048C-14.5085 84.778 -15.5527 81.3382 -15.8784 77.7952C-16.204 74.2521 -15.8043 70.6799 -14.7035 67.2962C-13.6028 63.9125 -11.8241 60.7881 -9.47578 58.1133C-7.12745 55.4385 -4.25866 53.2693 -1.04419 51.7379L41.0884 31.6159C43.9983 30.2353 46.6295 28.3324 48.8512 26.0019L80.9919 -7.83124C83.4432 -10.4125 86.3949 -12.4681 89.6671 -13.8728C92.9393 -15.2775 96.4635 -16.002 100.025 -16.002C103.586 -16.002 107.111 -15.2775 110.383 -13.8728C113.655 -12.4681 116.607 -10.4125 119.058 -7.83124L151.206 26.0019C153.406 28.3282 156.016 30.2311 158.904 31.6159L201.051 51.7023C204.264 53.2351 207.132 55.4052 209.479 58.0804C211.826 60.7556 213.603 63.88 214.703 67.2634C215.803 70.6468 216.203 74.2184 215.877 77.7609C215.551 81.3034 214.508 84.7426 212.809 87.8693L190.532 128.875C189.002 131.695 188.003 134.773 187.584 137.954L181.481 184.203C181.015 187.73 179.837 191.125 178.016 194.181C176.195 197.238 173.771 199.893 170.891 201.984C168.011 204.074 164.735 205.558 161.262 206.343C157.79 207.129 154.194 207.2 150.693 206.552V206.552Z" fill="url('#myGradient')"/>
</svg>
