<svg width="300" height="239" viewBox="0 0 300 239" fill="none" xmlns="http://www.w3.org/2000/svg">
<defs>
<linearGradient id="myGradient" gradientTransform="rotate(0)"> 
      <stop offset="0%" stop-color="rgba(255, 255, 255, 0)" id="offset1"/>
      <stop offset="0%" stop-color="rgba(246, 171, 192, 0.8)" id="offset2"/>
      <stop offset="0%" stop-color="rgba(102, 80, 162, 0.8)" id="offset3"/>
    </linearGradient></defs>
<path d="M276.18 103.739C267.32 102.449 254.77 101.289 238.87 100.299L236.22 100.139C231.627 72.1754 217.247 46.7535 195.646 28.4108C174.045 10.068 146.628 -0.00195312 118.29 -0.00195312C89.9516 -0.00195312 62.5353 10.068 40.9341 28.4108C19.333 46.7535 4.95278 72.1754 0.359985 100.139L-2.29004 100.299C-18.19 101.299 -30.74 102.449 -39.6 103.739C-48.92 105.109 -63 107.169 -63 119.499C-63 131.829 -48.92 133.889 -39.6 135.259C-30.74 136.549 -18.19 137.709 -2.29004 138.699L0.359985 138.859C4.95278 166.823 19.333 192.245 40.9341 210.588C62.5353 228.93 89.9516 239 118.29 239C146.628 239 174.045 228.93 195.646 210.588C217.247 192.245 231.627 166.823 236.22 138.859L238.87 138.699C254.77 137.699 267.32 136.549 276.18 135.259C285.5 133.889 299.58 131.829 299.58 119.499C299.58 107.169 285.5 105.109 276.18 103.739Z" fill="url('#myGradient')"/>
</svg>
