<svg width="210" height="210" viewBox="0 0 210 210" fill="none" xmlns="http://www.w3.org/2000/svg"><defs>
<linearGradient id="myGradient" gradientTransform="rotate(0)"> 
      <stop offset="0%" stop-color="rgba(255, 255, 255, 0)" id="offset1"/>
      <stop offset="0%" stop-color="rgba(246, 171, 192, 0.8)" id="offset2"/>
      <stop offset="0%" stop-color="rgba(102, 80, 162, 0.8)" id="offset3"/>
    </linearGradient></defs>
<path d="M155.79 80.0051C147.35 78.4251 138.23 77.0051 128.54 75.7851C122.295 53.9502 109.108 34.7433 90.9757 21.0697C72.843 7.39619 50.7504 0 28.04 0C5.32959 0 -16.763 7.39619 -34.8958 21.0697C-53.0285 34.7433 -66.2148 53.9502 -72.46 75.7851C-82.15 77.0051 -91.27 78.4251 -99.71 80.0051C-134.08 86.4851 -153 95.2051 -153 104.565C-153 113.925 -134.08 122.645 -99.71 129.125C-91.27 130.705 -82.15 132.125 -72.46 133.345C-66.2148 155.18 -53.0285 174.387 -34.8958 188.06C-16.763 201.734 5.32959 209.13 28.04 209.13C50.7504 209.13 72.843 201.734 90.9757 188.06C109.108 174.387 122.295 155.18 128.54 133.345C138.23 132.125 147.35 130.705 155.79 129.125C190.16 122.645 209.08 113.925 209.08 104.565C209.08 95.2051 190.16 86.4851 155.79 80.0051ZM-76.21 112.005C-92.09 109.925 -101.48 107.365 -101.48 104.585C-101.48 101.805 -92.09 99.2451 -76.21 97.1651C-76.39 99.6151 -76.48 102.095 -76.48 104.585C-76.48 107.075 -76.35 109.535 -76.17 111.985L-76.21 112.005ZM132.25 97.1651C148.13 99.2451 157.52 101.805 157.52 104.585C157.52 107.365 148.13 109.925 132.25 112.005C132.43 109.555 132.52 107.075 132.52 104.585C132.52 102.095 132.47 99.5951 132.29 97.1451L132.25 97.1651ZM-75.2 88.2151C-82.49 89.1151 -88.53 90.1051 -93.2 91.2151C-98.71 92.4751 -110.2 95.0851 -110.2 104.615C-110.2 114.145 -98.73 116.755 -93.2 118.015C-88.48 119.095 -82.44 120.085 -75.2 121.015C-74.92 122.775 -74.5867 124.522 -74.2 126.255C-80.74 125.415 -86.98 124.485 -92.86 123.475C-128.63 117.315 -141.38 109.715 -141.38 104.645C-141.38 99.575 -128.63 91.9751 -92.86 85.8151C-86.98 84.8151 -80.74 83.8751 -74.2 83.0351C-74.56 84.7151 -74.88 86.4351 -75.16 88.1951L-75.2 88.2151ZM131.24 120.955C138.53 120.055 144.57 119.065 149.24 117.955C154.75 116.695 166.24 114.085 166.24 104.555C166.24 95.0251 154.77 92.4151 149.24 91.1551C144.52 90.0751 138.48 89.0851 131.24 88.1551C130.96 86.3951 130.627 84.6484 130.24 82.9151C136.78 83.7551 143.02 84.6851 148.9 85.6951C184.67 91.8551 197.42 99.4551 197.42 104.525C197.42 109.595 184.67 117.195 148.9 123.355C143.02 124.355 136.78 125.295 130.24 126.135C130.653 124.435 131 122.702 131.28 120.935L131.24 120.955ZM-99.44 128.065C-132.76 121.785 -151.88 113.205 -151.88 104.535C-151.88 95.8651 -132.8 87.3151 -99.44 81.0651C-91.15 79.5051 -82.19 78.0651 -72.68 76.9051C-72.85 77.5051 -73.01 78.1051 -73.17 78.7051C-115.17 83.9151 -145.46 92.6551 -145.46 104.595C-145.46 116.535 -115.12 125.275 -73.17 130.485C-73.01 131.085 -72.85 131.685 -72.68 132.285C-82.23 131.065 -91.19 129.655 -99.44 128.065ZM155.56 128.065C147.27 129.625 138.31 131.065 128.8 132.225C128.97 131.625 129.13 131.025 129.29 130.425C171.29 125.215 201.58 116.475 201.58 104.535C201.58 92.5951 171.24 83.8551 129.29 78.6451C129.13 78.0451 128.97 77.4451 128.8 76.8451C138.31 78.0551 147.27 79.4451 155.56 81.0051C188.88 87.2851 208 95.8651 208 104.535C208 113.205 188.92 121.815 155.56 128.065Z" fill="url('#myGradient')"/>
</svg>
