<svg width="335" height="194" viewBox="0 0 335 194" fill="none" xmlns="http://www.w3.org/2000/svg">
<defs>
<linearGradient id="myGradient" gradientTransform="rotate(0)"> 
      <stop offset="14.96%" stop-color="#B4A175" id="offset1"/>
      <stop offset="83.93%" stop-color="#7E5B94" id="offset2"/>
      <stop offset="0%" stop-color="rgba(102, 80, 162, 0.8)" id="offset3"/>
    </linearGradient></defs>
<path d="M257.64 61.1701C250.466 43.1216 238.039 27.6423 221.968 16.7364C205.897 5.83041 186.922 0 167.5 0C148.078 0 129.103 5.83041 113.032 16.7364C96.9611 27.6423 84.5341 43.1216 77.36 61.1701C30.84 68.7201 0 81.9501 0 97.0001C0 120.47 75 139.5 167.5 139.5C260 139.5 335 120.5 335 97.0001C335 81.9501 304.16 68.7201 257.64 61.1701Z" fill="url('#myGradient')"/>
<path d="M111.6 150.85C101.19 149.92 95.54 162.85 103.38 169.78C121.104 185.396 143.918 194.006 167.539 193.997C191.161 193.988 213.968 185.359 231.68 169.73C239.51 162.81 233.86 149.86 223.45 150.8C205.88 152.39 186.96 153.25 167.25 153.25C147.75 153.25 129.01 152.4 111.6 150.85Z" fill="url('#myGradient')"/>
</svg>
