<svg width="580" height="580" viewBox="0 0 580 580" fill="none" xmlns="http://www.w3.org/2000/svg">
<g clip-path="url(#clip0)">
<path d="M351.181 423.597L295.776 413.343C291.963 412.639 288.054 412.639 284.241 413.343L228.827 423.648C224.601 424.43 220.26 424.344 216.068 423.395C211.876 422.447 207.922 420.656 204.445 418.132C200.968 415.608 198.041 412.403 195.844 408.713C193.646 405.023 192.223 400.924 191.661 396.667L184.304 340.849C183.796 337.009 182.587 333.295 180.737 329.891L153.851 280.402C151.8 276.628 150.54 272.477 150.147 268.201C149.754 263.924 150.236 259.613 151.565 255.529C152.893 251.446 155.04 247.675 157.874 244.446C160.708 241.218 164.171 238.6 168.05 236.752L218.9 212.467C222.412 210.801 225.587 208.504 228.269 205.691L267.059 164.858C270.018 161.743 273.58 159.262 277.529 157.567C281.478 155.871 285.732 154.997 290.03 154.997C294.328 154.997 298.582 155.871 302.531 157.567C306.48 159.262 310.043 161.743 313.001 164.858L351.8 205.691C354.456 208.499 357.605 210.796 361.092 212.467L411.959 236.709C415.836 238.559 419.297 241.178 422.13 244.407C424.962 247.635 427.108 251.406 428.435 255.49C429.763 259.573 430.245 263.884 429.852 268.159C429.459 272.435 428.199 276.585 426.149 280.359L399.263 329.848C397.416 333.252 396.21 336.966 395.705 340.806L388.339 396.624C387.777 400.88 386.354 404.977 384.157 408.667C381.96 412.356 379.034 415.56 375.558 418.083C372.082 420.606 368.128 422.397 363.937 423.345C359.746 424.292 355.406 424.378 351.181 423.597Z" fill="url(#paint0_linear)" fill-opacity="0.8"/>
</g>
<defs>
<linearGradient id="paint0_linear" x1="142.003" y1="168.809" x2="312.296" y2="384.224" gradientUnits="userSpaceOnUse">
<stop offset="0.0833333" stop-color="#FF508F"/>
<stop offset="1" stop-color="#FF9A61"/>
</linearGradient>
<clipPath id="clip0">
<rect width="280" height="269.138" fill="white" transform="translate(150 155)"/>
</clipPath>
</defs>
</svg>
