<svg width="580" height="580" viewBox="0 0 580 580" fill="none" xmlns="http://www.w3.org/2000/svg">
<path d="M504.515 212.095C499.425 198.11 460.479 198.241 404.624 209.854C386.958 184.612 361.485 165.901 332.152 156.62C302.819 147.338 271.266 148.006 242.383 158.518C213.499 169.031 188.899 188.802 172.395 214.766C155.891 240.731 148.404 271.439 151.096 302.131C100.824 329.083 70.9256 354.071 76.0156 368.056C81.1057 382.041 120.052 381.91 175.907 370.297C193.573 395.538 219.047 414.25 248.379 423.531C277.712 432.812 309.265 432.145 338.148 421.632C367.032 411.12 391.632 391.349 408.136 365.384C424.64 339.42 432.127 308.712 429.435 278.02C479.687 251.014 509.606 226.08 504.515 212.095ZM115.716 352.988C112.478 344.091 126.658 329.756 152.554 313.42C155.353 329.678 160.977 345.323 169.168 359.644C138.948 363.757 118.95 361.875 115.716 352.988ZM427.723 265.39C424.789 249.267 419.076 233.776 410.839 219.609C440.777 215.599 460.573 217.506 463.775 226.305C466.978 235.104 453.126 249.257 427.723 265.39Z" fill="url(#paint0_linear)" fill-opacity="0.7"/>
<defs>
<linearGradient id="paint0_linear" x1="19.3224" y1="212.293" x2="33.4695" y2="466.009" gradientUnits="userSpaceOnUse">
<stop stop-color="#55F18A"/>
<stop offset="1" stop-color="white" stop-opacity="0.69"/>
</linearGradient>
</defs>
</svg>
