<svg width="580" height="580" viewBox="0 0 580 580" fill="none" xmlns="http://www.w3.org/2000/svg">
<path d="M439.401 200.52C428.059 202.397 415.935 204.786 403.185 207.689C385.329 183.077 359.943 164.951 330.868 156.051C301.793 147.151 270.611 147.963 242.038 158.362C213.466 168.762 189.057 188.184 172.505 213.69C155.953 239.197 148.158 269.4 150.3 299.731C138.667 305.704 127.843 311.666 117.948 317.519C77.6731 341.411 57.8623 361.045 62.1484 372.822C66.4346 384.598 94.2316 386.905 140.441 379.319C151.783 377.442 163.908 375.052 176.658 372.15C194.514 396.761 219.899 414.888 248.974 423.787C278.049 432.687 309.231 431.876 337.804 421.476C366.377 411.076 390.785 391.654 407.337 366.148C423.889 340.641 431.684 310.438 429.543 280.107C441.175 274.135 451.999 268.172 461.895 262.319C502.169 238.428 521.98 218.793 517.694 207.017C513.408 195.24 485.611 192.933 439.401 200.52ZM162.168 347.018C141.236 351.673 128.25 352.752 126.977 349.255C125.704 345.757 136.345 338.236 155.372 328.347C156.267 331.512 157.29 334.674 158.43 337.806C159.57 340.939 160.86 343.975 162.209 346.975L162.168 347.018ZM417.643 232.889C438.574 228.234 451.561 227.155 452.834 230.652C454.107 234.15 443.465 241.671 424.438 251.559C423.543 248.395 422.521 245.233 421.38 242.1C420.24 238.968 419.032 235.845 417.684 232.845L417.643 232.889ZM152.544 316.625C143.785 321.095 136.639 325.107 131.272 328.642C124.916 332.75 111.655 341.295 116.019 353.285C120.384 365.275 136.01 363.307 143.544 362.36C149.977 361.557 158.029 360.037 167.564 357.891C168.722 359.978 169.942 362.022 171.222 364.026C162.609 365.964 154.332 367.652 146.472 369.073C98.6477 377.703 79.1263 373.98 76.8046 367.601C74.4829 361.222 87.0439 345.822 129.227 321.692C136.167 317.741 143.587 313.701 151.43 309.65C151.747 311.928 152.132 314.239 152.585 316.581L152.544 316.625ZM427.266 263.282C436.026 258.812 443.172 254.8 448.539 251.265C454.894 247.157 468.155 238.612 463.791 226.621C459.427 214.631 443.801 216.6 436.266 217.547C429.833 218.35 421.781 219.87 412.246 222.015C411.088 219.929 409.869 217.884 408.589 215.881C417.201 213.943 425.478 212.255 433.338 210.833C481.163 202.204 500.684 205.927 503.006 212.306C505.327 218.684 492.766 234.085 450.584 258.215C443.644 262.166 436.224 266.206 428.38 270.257C428.122 267.929 427.764 265.59 427.307 263.239L427.266 263.282ZM140.295 377.861C95.4985 385.218 67.514 383.179 63.5438 372.271C59.5736 361.363 79.6636 341.869 118.773 318.729C128.489 312.97 139.102 307.055 150.536 301.241C150.597 302.074 150.67 302.902 150.743 303.73C100.288 329.518 66.1809 354.384 71.6485 369.407C77.1161 384.429 119.29 381.531 174.455 368.876C174.931 369.558 175.407 370.24 175.895 370.917C163.322 373.755 151.403 376.084 140.295 377.861ZM461.12 261.091C451.404 266.85 440.791 272.764 429.357 278.579C429.296 277.746 429.223 276.918 429.149 276.09C479.605 250.302 513.712 225.435 508.244 210.413C502.777 195.391 460.602 198.288 405.438 210.943C404.962 210.262 404.486 209.58 403.997 208.903C416.516 206.071 428.426 203.717 439.57 201.883C484.367 194.526 512.351 196.565 516.321 207.473C520.292 218.381 500.229 237.951 461.12 261.091Z" fill="url(#paint0_linear)" fill-opacity="0.7"/>
<defs>
<linearGradient id="paint0_linear" x1="5.45519" y1="217.058" x2="23.8794" y2="471.736" gradientUnits="userSpaceOnUse">
<stop stop-color="#55F18A"/>
<stop offset="1" stop-color="white" stop-opacity="0.69"/>
</linearGradient>
</defs>
</svg>
