<svg width="580" height="580" viewBox="0 0 580 580" fill="none" xmlns="http://www.w3.org/2000/svg">
<path d="M487.32 217.859C479.897 197.464 443.937 193.269 397.285 199.323C378.791 177.406 354.014 161.694 326.303 154.31C298.592 146.926 269.282 148.226 242.334 158.035C215.385 167.843 192.097 185.687 175.615 209.156C159.134 232.625 150.253 260.587 150.174 289.265C110.521 314.623 85.6943 340.942 93.1174 361.337C100.54 381.732 136.5 385.926 183.148 379.86C201.642 401.778 226.419 417.49 254.13 424.873C281.841 432.257 311.151 430.957 338.099 421.149C365.048 411.34 388.336 393.496 404.818 370.028C421.299 346.559 430.18 318.597 430.26 289.919C469.916 264.573 494.739 238.242 487.32 217.859ZM167.722 369.026C125.897 372.622 107.833 365.198 104.87 357.059C101.908 348.92 110.957 331.575 145.325 307.491C147.141 306.221 148.996 304.95 150.89 303.678C153.27 326.857 161.36 349.084 174.436 368.37C172.183 368.608 169.945 368.827 167.722 369.026ZM435.1 271.709C433.285 272.979 431.43 274.25 429.535 275.522C427.156 252.343 419.066 230.115 405.989 210.829C408.258 210.586 410.496 210.368 412.703 210.173C454.529 206.578 472.605 213.997 475.567 222.136C478.53 230.276 469.452 247.578 435.054 271.726L435.1 271.709Z" fill="url(#paint0_linear)" fill-opacity="0.7"/>
<defs>
<linearGradient id="paint0_linear" x1="36.422" y1="205.567" x2="44.4397" y2="457.643" gradientUnits="userSpaceOnUse">
<stop stop-color="#55F18A"/>
<stop offset="1" stop-color="white" stop-opacity="0.69"/>
</linearGradient>
</defs>
</svg>
