<svg width="580" height="580" viewBox="0 0 580 580" fill="none" xmlns="http://www.w3.org/2000/svg">
<path fill-rule="evenodd" clip-rule="evenodd" d="M326.299 154.489C354.28 161.549 379.498 176.846 398.686 198.4C467.476 185.301 517.26 188.101 524.908 209.114C536.85 241.926 441.788 306.569 312.636 353.576C183.484 400.584 69.0947 412.128 57.1675 379.358C49.5193 358.344 85.8559 324.2 146.972 290.017C147.817 261.171 157.302 233.243 174.198 209.849C191.095 186.454 214.625 168.671 241.743 158.801C268.861 148.93 298.318 147.428 326.299 154.489ZM265.127 428.743C240.791 424.793 217.875 414.666 198.57 399.33C238.601 390.711 277.975 379.286 316.401 365.14C355.219 351.178 393 334.484 429.459 315.183C424.548 339.344 413.522 361.841 397.434 380.524C381.347 399.206 360.735 413.45 337.571 421.892C314.407 430.334 289.464 432.693 265.127 428.743Z" fill="url(#paint0_linear)" fill-opacity="0.8"/>
<defs>
<linearGradient id="paint0_linear" x1="116.44" y1="236.202" x2="320.173" y2="464.963" gradientUnits="userSpaceOnUse">
<stop stop-color="#FFBDA1"/>
<stop offset="1" stop-color="#4E61A4"/>
</linearGradient>
</defs>
</svg>
