<svg width="580" height="580" viewBox="0 0 580 580" fill="none" xmlns="http://www.w3.org/2000/svg">
<path d="M487.32 217.858C479.897 197.463 443.937 193.269 397.285 199.323C378.791 177.406 354.014 161.694 326.303 154.31C298.592 146.926 269.282 148.226 242.334 158.034C215.385 167.843 192.097 185.687 175.615 209.156C159.134 232.624 150.253 260.586 150.174 289.264C110.521 314.622 85.6943 340.941 93.1174 361.336C100.54 381.731 136.5 385.926 183.148 379.86C201.642 401.777 226.419 417.489 254.13 424.873C281.841 432.257 311.151 430.957 338.099 421.148C365.048 411.34 388.336 393.496 404.818 370.027C421.299 346.559 430.18 318.596 430.26 289.918C469.916 264.572 494.739 238.241 487.32 217.858ZM167.722 369.026C125.897 372.621 107.833 365.198 104.87 357.059C101.908 348.919 110.957 331.574 145.325 307.491C147.141 306.221 148.996 304.949 150.89 303.677C153.27 326.856 161.36 349.084 174.436 368.37C172.183 368.607 169.945 368.826 167.722 369.026ZM435.1 271.708C433.285 272.978 431.43 274.249 429.535 275.522C427.156 252.342 419.066 230.115 405.989 210.829C408.258 210.586 410.496 210.367 412.703 210.173C454.529 206.577 472.605 213.997 475.567 222.136C478.53 230.275 469.452 247.578 435.054 271.725L435.1 271.708Z" fill="url(#paint0_linear)" fill-opacity="0.8"/>
<defs>
<linearGradient id="paint0_linear" x1="134.097" y1="225.912" x2="360.526" y2="456.569" gradientUnits="userSpaceOnUse">
<stop offset="0.0001" stop-color="#FFBED0"/>
<stop offset="0.980697" stop-color="#8567FF"/>
</linearGradient>
</defs>
</svg>
