<svg width="580" height="580" viewBox="0 0 580 580" fill="none" xmlns="http://www.w3.org/2000/svg">
<path fill-rule="evenodd" clip-rule="evenodd" d="M326.299 154.488C354.28 161.548 379.498 176.846 398.686 198.4C467.476 185.301 517.26 188.1 524.908 209.114C536.85 241.925 441.788 306.568 312.636 353.576C183.484 400.583 69.0947 412.127 57.1675 379.357C49.5193 358.344 85.8559 324.199 146.972 290.016C147.817 261.171 157.302 233.243 174.198 209.848C191.095 186.454 214.625 168.67 241.743 158.8C268.861 148.93 298.318 147.428 326.299 154.488ZM265.127 428.742C240.791 424.792 217.875 414.665 198.57 399.33C238.601 390.711 277.975 379.286 316.401 365.139C355.219 351.177 393 334.483 429.459 315.182C424.548 339.343 413.522 361.84 397.434 380.523C381.347 399.206 360.735 413.449 337.571 421.891C314.407 430.334 289.464 432.692 265.127 428.742Z" fill="url(#paint0_linear)" fill-opacity="0.8"/>
<defs>
<linearGradient id="paint0_linear" x1="111.607" y1="234.648" x2="329.066" y2="484.946" gradientUnits="userSpaceOnUse">
<stop offset="0.0001" stop-color="#FFBED0"/>
<stop offset="0.980697" stop-color="#8567FF"/>
</linearGradient>
</defs>
</svg>
