<svg width="69" height="18" viewBox="0 0 69 18" fill="none" xmlns="http://www.w3.org/2000/svg">
<path d="M28.2152 6.1V6.904H30.3752V11.02H31.3712V3.136H30.3752V6.1H28.2152ZM28.8512 8.632C27.2912 8.08 26.2352 6.736 26.2352 5.332V4.804H28.5992V4H22.8512V4.804H25.2512V5.344C25.2512 6.868 24.1352 8.296 22.5392 8.872L23.0552 9.64C24.3152 9.184 25.2992 8.188 25.7672 6.964C26.2352 8.068 27.1592 8.968 28.3592 9.4L28.8512 8.632ZM25.4792 12.844V10.324H24.4832V13.648H31.6712V12.844H25.4792ZM36.6743 5.92H38.6663V5.104H36.6863V3.508H35.7383V5.104H33.7463V5.92H35.7383V6.436C35.7383 8.2 34.9103 10.084 33.4583 10.948L34.0343 11.68C35.0903 11.044 35.8463 9.844 36.2183 8.476C36.6143 9.772 37.3823 10.864 38.4263 11.452L38.9903 10.708C37.5383 9.928 36.6743 8.152 36.6743 6.436V5.92ZM39.5783 7.372H37.9343V8.188H39.5783V13.324H40.5143V3.376H39.5783V7.372ZM41.7383 3.124V13.876H42.6863V3.124H41.7383ZM55.4299 11.176H56.4259V3.136H55.4299V5.656H53.0779V6.472H55.4299V11.176ZM53.8459 8.632C52.2979 8.056 51.2419 6.64 51.2419 5.14V3.772H50.2579V5.104C50.2579 6.748 49.1779 8.272 47.5699 8.86L48.0859 9.64C49.3459 9.136 50.3059 8.116 50.7619 6.832C51.2179 7.996 52.1419 8.92 53.3299 9.388L53.8459 8.632ZM50.4859 12.844V10.288H49.5019V13.648H56.6779V12.844H50.4859ZM63.6369 7.996C62.5089 8.224 61.5489 8.284 60.0129 8.284V6.82H63.0969V6.064H60.0129V4.708H63.2169V3.916H59.0649V9.088H59.7489C61.4769 9.088 62.4969 9.04 63.7329 8.788L63.6369 7.996ZM60.4449 11.008H66.6969V13.888H67.6809V10.216H60.4449V11.008ZM66.7329 3.136V5.932H65.2929V3.328H64.3569V9.58H65.2929V6.736H66.7329V9.652H67.6809V3.136H66.7329Z" fill="#686672"/>
<path d="M6.26695 12.1277L3.98882 9.52523C3.73278 9.23273 3.31917 9.23273 3.06313 9.52523C2.80708 9.81773 2.80708 10.2902 3.06313 10.5827L5.80738 13.7177C6.06342 14.0102 6.47703 14.0102 6.73308 13.7177L13.6791 5.78273C13.9351 5.49023 13.9351 5.01773 13.6791 4.72523C13.423 4.43273 13.0094 4.43273 12.7534 4.72523L6.26695 12.1277Z" fill="#686672"/>
</svg>
