<svg width="48" height="48" viewBox="0 0 48 48" fill="none" xmlns="http://www.w3.org/2000/svg">
<path d="M11.2366 36.95H13.2866V38.05H14.6066V32.65H13.2866V33.85H11.2566C10.8166 33.41 10.2066 33.14 9.44656 33.14C8.08656 33.14 7.02656 34.09 7.02656 35.4C7.02656 36.7 8.08656 37.65 9.44656 37.65C10.1666 37.65 10.7966 37.39 11.2366 36.95ZM8.27656 35.4C8.27656 34.68 8.76656 34.26 9.44656 34.26C10.1266 34.26 10.6266 34.68 10.6266 35.4C10.6266 36.12 10.1266 36.54 9.44656 36.54C8.76656 36.54 8.27656 36.12 8.27656 35.4ZM11.8266 34.9H13.2866V35.9H11.8166C11.8566 35.73 11.8766 35.56 11.8766 35.4C11.8766 35.21 11.8566 35.06 11.8266 34.9ZM11.4866 38.23C9.54656 38.23 8.33656 38.9 8.33656 40.05C8.33656 41.19 9.54656 41.87 11.4866 41.87C13.4366 41.87 14.6466 41.19 14.6466 40.05C14.6466 38.9 13.4366 38.23 11.4866 38.23ZM11.4866 40.85C10.2766 40.85 9.63656 40.61 9.63656 40.05C9.63656 39.49 10.2766 39.25 11.4866 39.25C12.6966 39.25 13.3466 39.49 13.3466 40.05C13.3466 40.61 12.6966 40.85 11.4866 40.85ZM24.1858 38.16V37.1H22.9758C23.2058 35.81 23.2058 34.88 23.2058 34.01V33.18H16.8158V34.24H21.9158C21.9158 35.04 21.8958 35.93 21.6658 37.1H15.8658V38.16H19.3058V41.86H20.6458V38.16H24.1858ZM33.275 35.97V34.89H32.055V32.65H30.735V38.21H32.055V35.97H33.275ZM29.625 37.76L30.265 36.72C28.825 36.27 28.205 35.17 28.205 34.08V33.11H26.865V33.96C26.865 35.16 26.225 36.34 24.705 36.82L25.365 37.86C26.415 37.51 27.125 36.85 27.535 35.97C27.925 36.81 28.615 37.43 29.625 37.76ZM25.905 38.61V39.66H30.735V41.87H32.055V38.61H25.905ZM41.6542 32.64H40.4042V41.85H41.6542V32.64ZM38.5442 32.8V35.79H37.3742V36.86H38.5442V41.44H39.7742V32.8H38.5442ZM36.6742 35.09V34.64H38.0142V33.57H33.9142V34.64H35.3942V35.09C35.3942 36.69 34.9142 38.31 33.5742 39.17L34.3542 40.14C35.1942 39.62 35.7242 38.72 36.0442 37.67C36.3542 38.64 36.8442 39.44 37.6842 39.92L38.4542 38.96C37.1242 38.19 36.6742 36.63 36.6742 35.09Z" fill="white" fill-opacity="0.9"/>
<path d="M18 22C18 23.1 18.9 24 20 24H28C29.1 24 30 23.1 30 22V12C30 10.9 29.1 10 28 10H20C18.9 10 18 10.9 18 12V22ZM30 7H27.5L26.79 6.29C26.61 6.11 26.35 6 26.09 6H21.91C21.65 6 21.39 6.11 21.21 6.29L20.5 7H18C17.45 7 17 7.45 17 8C17 8.55 17.45 9 18 9H30C30.55 9 31 8.55 31 8C31 7.45 30.55 7 30 7Z" fill="white"/>
</svg>
