<svg width="69" height="18" viewBox="0 0 69 18" fill="none" xmlns="http://www.w3.org/2000/svg">
<path d="M30.3752 11.176H31.3712V3.136H30.3752V5.656H28.0232V6.472H30.3752V11.176ZM28.7912 8.632C27.2432 8.056 26.1872 6.64 26.1872 5.14V3.772H25.2032V5.104C25.2032 6.748 24.1232 8.272 22.5152 8.86L23.0312 9.64C24.2912 9.136 25.2512 8.116 25.7072 6.832C26.1632 7.996 27.0872 8.92 28.2752 9.388L28.7912 8.632ZM25.4312 12.844V10.288H24.4472V13.648H31.6232V12.844H25.4312ZM38.5823 7.996C37.4543 8.224 36.4943 8.284 34.9583 8.284V6.82H38.0423V6.064H34.9583V4.708H38.1623V3.916H34.0103V9.088H34.6943C36.4223 9.088 37.4423 9.04 38.6783 8.788L38.5823 7.996ZM35.3903 11.008H41.6423V13.888H42.6263V10.216H35.3903V11.008ZM41.6783 3.136V5.932H40.2383V3.328H39.3023V9.58H40.2383V6.736H41.6783V9.652H42.6263V3.136H41.6783ZM50.2219 10.576C49.3819 10.576 48.7939 9.892 48.7939 8.932C48.7939 7.996 49.3819 7.312 50.2219 7.312C51.0499 7.312 51.6499 7.996 51.6499 8.932C51.6499 9.892 51.0499 10.576 50.2219 10.576ZM50.2219 6.484C48.8899 6.484 47.9179 7.492 47.9179 8.932C47.9179 10.396 48.8899 11.392 50.2219 11.392C51.5539 11.392 52.5259 10.396 52.5259 8.932C52.5259 7.492 51.5539 6.484 50.2219 6.484ZM50.7019 3.436H49.7299V4.96H47.5459V5.764H52.8859V4.96H50.7019V3.436ZM55.7299 3.112V7.66H54.3499V3.364H53.4259V13.36H54.3499V8.464H55.7299V13.876H56.6779V3.112H55.7299ZM61.7529 5.188H63.6729V4.384H58.7649V5.188H60.8049V6.16C60.8049 8.14 59.9649 10.096 58.4649 10.996L59.0649 11.728C60.1329 11.056 60.9129 9.796 61.2849 8.32C61.6569 9.688 62.4009 10.84 63.4449 11.464L64.0449 10.744C62.5569 9.904 61.7529 8.032 61.7529 6.16V5.188ZM64.6329 6.988H62.8569V7.792H64.6329V13.324H65.5689V3.364H64.6329V6.988ZM66.7929 3.112V13.876H67.7409V3.112H66.7929Z" fill="#AD6EFD"/>
<path d="M6.26647 12.1275L3.98835 9.52499C3.7323 9.23249 3.3187 9.23249 3.06265 9.52499C2.80661 9.81749 2.80661 10.29 3.06265 10.5825L5.80691 13.7175C6.06295 14.01 6.47656 14.01 6.7326 13.7175L13.6786 5.78249C13.9346 5.48999 13.9346 5.01749 13.6786 4.72499C13.4225 4.43249 13.0089 4.43249 12.7529 4.72499L6.26647 12.1275Z" fill="#AD6EFD"/>
</svg>
