<svg width="81" height="49" viewBox="0 0 81 49" fill="none" xmlns="http://www.w3.org/2000/svg">
<path fill-rule="evenodd" clip-rule="evenodd" d="M46.1986 1.64271C50.9673 2.86328 55.2685 5.49363 58.5455 9.19321C70.2566 6.97725 78.7368 7.47685 80.048 11.0792C82.0953 16.704 65.9302 27.7378 43.9518 35.7373C21.9733 43.7368 2.49515 45.6679 0.450483 40.0503C-0.860647 36.448 5.3145 30.6142 15.7101 24.784C15.8424 19.8436 17.4465 15.0638 20.315 11.0636C23.1834 7.06335 27.184 4.02684 31.7987 2.3472C36.4135 0.667565 41.43 0.422142 46.1986 1.64271ZM35.8904 48.5927C31.7438 47.9063 27.8366 46.1625 24.5424 43.528C31.357 42.0679 38.0586 40.1269 44.5978 37.7193C51.2037 35.3435 57.6317 32.4994 63.8337 29.2082C63.0071 33.3445 61.1382 37.1935 58.4056 40.387C55.673 43.5805 52.1682 46.0118 48.2262 47.4485C44.2843 48.8851 40.0369 49.2791 35.8904 48.5927Z" fill="url(#paint0_linear)" fill-opacity="0.8"/>
<defs>
<linearGradient id="paint0_linear" x1="-9.4352" y1="19.976" x2="43.7092" y2="71.5026" gradientUnits="userSpaceOnUse">
<stop stop-color="white"/>
<stop offset="1" stop-color="#4E5DDF"/>
</linearGradient>
</defs>
</svg>
