<svg width="48" height="49" viewBox="0 0 48 49" fill="none" xmlns="http://www.w3.org/2000/svg">
<path opacity="0.74" d="M47.4677 0.782113C45.9233 -0.744442 40.7832 1.71645 34.1237 6.75391C30.2152 4.53058 25.6817 3.65905 21.2258 4.27441C16.77 4.88978 12.6406 6.95766 9.47776 10.1575C6.31493 13.3574 4.29527 17.5106 3.73185 21.9733C3.16842 26.4361 4.09269 30.9591 6.36139 34.8414C1.3958 41.5532 -0.999035 46.7276 0.545403 48.2541C2.08984 49.7807 7.22994 47.3198 13.8895 42.2823C17.7979 44.5057 22.3314 45.3772 26.7873 44.7618C31.2432 44.1465 35.3725 42.0786 38.5354 38.8787C41.6982 35.6788 43.7179 31.5256 44.2813 27.0629C44.8447 22.6002 43.9204 18.0771 41.6517 14.1948C46.6113 7.47707 49.0122 2.30867 47.4677 0.782113ZM4.8542 43.7743C3.8716 42.803 4.8527 40.0211 7.25761 36.24C8.64103 38.2104 10.3595 39.9227 12.3348 41.299C8.59634 43.7381 5.8356 44.7443 4.8542 43.7743ZM40.6383 12.635C39.2456 10.6911 37.5248 9.00475 35.5531 7.65165C39.2606 5.24391 41.9962 4.25347 42.968 5.21397C43.9398 6.17447 42.9908 8.91182 40.6383 12.635Z" fill="url(#paint0_linear)"/>
<defs>
<linearGradient id="paint0_linear" x1="0.787475" y1="27.3769" x2="41.9288" y2="43.3886" gradientUnits="userSpaceOnUse">
<stop stop-color="#FFE3A1"/>
<stop offset="1" stop-color="#57C3F1"/>
</linearGradient>
</defs>
</svg>
