<svg width="48" height="48" viewBox="0 0 48 48" fill="none" xmlns="http://www.w3.org/2000/svg">
<path d="M15.2366 37.2H11.7166V36.44H14.1766V32.89H12.8666V33.7H9.27656V32.89H7.96656V36.44H10.3966V37.2H6.90656V38.25H15.2366V37.2ZM9.27656 35.41V34.69H12.8666V35.41H9.27656ZM7.82656 38.88V39.93H12.9066V41.87H14.2266V38.88H7.82656ZM24.1858 38.16V37.1H22.9758C23.2058 35.81 23.2058 34.88 23.2058 34.01V33.18H16.8158V34.24H21.9158C21.9158 35.04 21.8958 35.93 21.6658 37.1H15.8658V38.16H19.3058V41.86H20.6458V38.16H24.1858ZM33.355 37.34V36.25H32.035V32.65H30.715V41.86H32.035V37.34H33.355ZM28.115 34.01V32.81H26.795V34.01H24.755V35.06H30.115V34.01H28.115ZM27.465 35.58C26.125 35.58 25.125 36.49 25.125 37.77C25.125 39.08 26.125 39.98 27.465 39.98C28.795 39.98 29.785 39.08 29.785 37.77C29.785 36.49 28.795 35.58 27.465 35.58ZM27.465 38.9C26.825 38.9 26.385 38.5 26.385 37.78C26.385 37.06 26.825 36.65 27.465 36.65C28.105 36.65 28.535 37.08 28.535 37.77C28.535 38.49 28.105 38.9 27.465 38.9ZM41.4242 32.64H40.0942V41.85H41.4242V32.64ZM38.6842 33.6H34.2642V34.65H37.3342C37.1442 36.69 36.1242 38.14 33.7742 39.26L34.4642 40.3C37.7342 38.73 38.6842 36.41 38.6842 33.6Z" fill="white" fill-opacity="0.9"/>
<path d="M19 22C19 23.1 19.9 24 21 24H29C30.1 24 31 23.1 31 22V12C31 10.9 30.1 10 29 10H21C19.9 10 19 10.9 19 12V22ZM24.65 13.35C24.85 13.15 25.16 13.15 25.36 13.35L29 17H27V21H23V17H21L24.65 13.35ZM28.5 7L27.79 6.29C27.61 6.11 27.35 6 27.09 6H22.91C22.65 6 22.39 6.11 22.21 6.29L21.5 7H19C18.45 7 18 7.45 18 8C18 8.55 18.45 9 19 9H31C31.55 9 32 8.55 32 8C32 7.45 31.55 7 31 7H28.5Z" fill="white"/>
</svg>
